# xmcd CD database file
#
# Track frame offsets:
#	150
#	66511
#	112782
#	178395
#	230925
#	249177
#	304578
#
# Disc length: 4517 seconds
#
# Revision: 0
# Processed by: cddbd v1.5.2PL0 Copyright (c) Steve Scherf et al.
# Submitted via: CDex 1.70beta2
#
DISCID=5d11a307
DTITLE=Charles Lloyd Quartet - Rabo de Nube
DYEAR=1900
DGENRE=Jazz
TTITLE0=Prometheus
TTITLE1=Migration Of Spirit
TTITLE2=Booker's Garden
TTITLE3=Ramanujan
TTITLE4=La Colline De Monk
TTITLE5=Sweet Georgia Bright
TTITLE6=Rabo De Nube
EXTD=
EXTT0=
EXTT1=
EXTT2=
EXTT3=
EXTT4=
EXTT5=
EXTT6=
PLAYORDER=
